<mxfile host="app.diagrams.net" modified="2023-09-10T07:43:06.213Z" agent="Mozilla/5.0 (Windows NT 10.0; Win64; x64; rv:109.0) Gecko/20100101 Firefox/117.0" etag="tDQO_BZRrTnW7JauoEsD" version="21.7.2" type="github">
  <diagram name="第 1 页" id="FMjeM_yCNT9jQqE1lPBC">
    <mxGraphModel dx="1297" dy="414" grid="1" gridSize="10" guides="1" tooltips="1" connect="1" arrows="1" fold="1" page="1" pageScale="1" pageWidth="827" pageHeight="1169" math="0" shadow="0">
      <root>
        <mxCell id="0" />
        <mxCell id="1" parent="0" />
        <mxCell id="40511j6W6iInCJbhX8nm-1" value="" style="rounded=0;whiteSpace=wrap;html=1;fillColor=#cdeb8b;strokeColor=#36393d;" vertex="1" parent="1">
          <mxGeometry x="210" y="120" width="210" height="570" as="geometry" />
        </mxCell>
        <mxCell id="40511j6W6iInCJbhX8nm-3" value="共享head（堆）" style="rounded=0;whiteSpace=wrap;html=1;fillColor=#cce5ff;strokeColor=#36393d;" vertex="1" parent="1">
          <mxGeometry x="640" y="120" width="200" height="570" as="geometry" />
        </mxCell>
        <mxCell id="40511j6W6iInCJbhX8nm-4" value="栈1" style="rounded=0;whiteSpace=wrap;html=1;" vertex="1" parent="1">
          <mxGeometry x="255" y="150" width="120" height="60" as="geometry" />
        </mxCell>
        <mxCell id="40511j6W6iInCJbhX8nm-5" value="栈1" style="rounded=0;whiteSpace=wrap;html=1;" vertex="1" parent="1">
          <mxGeometry x="255" y="250" width="120" height="60" as="geometry" />
        </mxCell>
        <mxCell id="40511j6W6iInCJbhX8nm-6" value="栈1" style="rounded=0;whiteSpace=wrap;html=1;" vertex="1" parent="1">
          <mxGeometry x="255" y="370" width="120" height="60" as="geometry" />
        </mxCell>
        <mxCell id="40511j6W6iInCJbhX8nm-7" value="栈1" style="rounded=0;whiteSpace=wrap;html=1;" vertex="1" parent="1">
          <mxGeometry x="255" y="470" width="120" height="60" as="geometry" />
        </mxCell>
        <mxCell id="40511j6W6iInCJbhX8nm-8" value="栈1" style="rounded=0;whiteSpace=wrap;html=1;" vertex="1" parent="1">
          <mxGeometry x="255" y="580" width="120" height="60" as="geometry" />
        </mxCell>
        <mxCell id="40511j6W6iInCJbhX8nm-9" value="" style="text;whiteSpace=wrap;html=1;" vertex="1" parent="1">
          <mxGeometry x="-210" y="560" width="60" height="50" as="geometry" />
        </mxCell>
      </root>
    </mxGraphModel>
  </diagram>
</mxfile>
